<?xml version="1.0" encoding="utf-8"?>
<!-- Uploaded to: SVG Repo, www.svgrepo.com, Generator: SVG Repo Mixer Tools -->
<svg fill="#000000" version="1.1" id="Layer_1" xmlns="http://www.w3.org/2000/svg" xmlns:xlink="http://www.w3.org/1999/xlink" 
	 viewBox="0 0 128 128" xml:space="preserve">
<rect x="14.1" y="84.1" width="83.7" height="14.8"/>
<rect x="101.7" y="84.2" width="4.2" height="14.8"/>
<rect x="109.6" y="84.2" width="4.2" height="14.8"/>
<path d="M80.4,64.7c-6.4,0-11.6-5.2-11.6-11.5c0-1.2,0.2-2.4,0.5-3.5c-7.9-0.1-14.2-6.6-14.2-14.5c0-8,6.4-14.4,14.4-14.5v4.2
	c-5.6,0.1-10.2,4.7-10.2,10.4c0,5.7,4.7,10.4,10.4,10.4c0.7,0,1.4-0.1,2.1-0.2c0.2-0.1,0.4-0.1,0.6-0.1c1.3,0,2.5,1.1,2.5,2.4
	c0,0.5-0.2,1-0.4,1.4c-0.8,1.2-1.3,2.6-1.3,4.1c0,4,3.3,7.3,7.3,7.3h15.2c5.8,0,10.4,4.7,10.4,10.4l0,8.3h-4.2v-8.3
	c0-3.4-2.8-6.2-6.2-6.2H80.4z"/>
<path d="M83.8,48.7c1.6-2,2.5-4.5,2.5-7.3c0-6.6-5.4-12-12-12h-0.9v-4.2h0.9c8.9,0,16.2,7.3,16.2,16.2c0,2.4-0.5,4.7-1.5,6.7l3,0
	c12.1,0,21.9,9.8,21.9,21.9v9.1h-4.2V70c0-9.8-7.9-17.7-17.7-17.7h-6.2c-1.3,0-2.4-1.1-2.4-2.4C83.4,49.5,83.6,49,83.8,48.7"/>
</svg>